<svg xmlns="http://www.w3.org/2000/svg" shape-rendering="geometricPrecision" text-rendering="geometricPrecision" image-rendering="optimizeQuality" fill-rule="evenodd" clip-rule="evenodd" viewBox="0 0 512 478.63"><path fill="#1F1F1F" d="M42.379 270.346c-45.751-23.252-40.501-49.168 5.459-46.46l10.292 19.292 15.528-48.293c-18.077-5.956-31.288-23.081-31.288-43.037V45.282C42.37 20.346 62.717 0 87.653 0h336.712c24.87 0 45.283 20.419 45.283 45.282v106.566c0 14.443-6.917 27.399-17.586 35.714l13.332 53.574 9.167-17.25c47.252-2.75 51.46 24.71 1.458 48.418l8.126 12.458c32.876 33.793 29.792 67.534 24.667 150.995v27.415c0 8.5-6.959 15.458-15.458 15.458h-65.962c-8.499 0-15.458-6.958-15.458-15.458v-12.415H100.173v12.415c0 8.5-6.959 15.458-15.459 15.458H18.753c-8.5 0-15.459-6.958-15.459-15.458v-35.624c0-.833.083-1.624.167-2.417-5-64.044-12.041-121.785 38.918-154.785zm384.914-73.314c-.97.062-1.945.099-2.928.099H98.323L80.131 257.72h361.762l-14.6-60.688zM126.59 346.296l-58.585-7.376c-13.834-1.542-17.542 4.291-12.833 16.208l6.333 15.377c2.041 3.957 4.751 6.833 7.917 8.834 3.708 2.291 8.167 3.415 13.125 3.624l52.251.417c12.626-.042 18.085-5.083 14.126-16.667-3.249-10.876-10.666-17.709-22.334-20.417zm258.843 0l58.585-7.376c13.834-1.542 17.542 4.291 12.833 16.208l-6.332 15.377c-2.042 3.957-4.751 6.833-7.918 8.834-3.708 2.291-8.167 3.415-13.125 3.624l-52.251.417c-12.626-.042-18.085-5.083-14.126-16.667 3.249-10.876 10.666-17.709 22.334-20.417z"/><path fill="#FFD549" d="M87.652 13.192h336.713c17.657 0 32.09 14.499 32.09 32.09v106.567c0 17.591-14.499 32.091-32.09 32.091H87.652c-17.591 0-32.09-14.434-32.09-32.091V45.282c0-17.657 14.433-32.09 32.09-32.09z"/><path fill="#FFCB1E" d="M456.455 45.282v106.567c0 17.582-14.508 32.091-32.09 32.091H87.652L456.455 45.282z"/><path fill="#1F1F1F" fill-rule="nonzero" d="M191.45 79.697h-17.94v57.534h-24.747V79.697h-17.94V59.9h60.627v19.797zm25.551 57.534h-26.107L210.938 59.9h38.233l20.044 77.331h-26.107l-2.846-12.25h-20.415l-2.846 12.25zm12.372-53.575l-5.072 21.653h11.383l-4.948-21.653h-1.363zM300.458 59.9l8.536 20.663h1.239l8.536-20.663h26.85l-17.198 37.367 17.198 39.964h-27.468l-9.279-22.271h-1.115l-9.155 22.271h-26.231l16.827-39.223L272.371 59.9h28.087zm55.989 77.331V59.9h24.746v77.331h-24.746z"/></svg>